<svg width="20" height="20" viewBox="0 0 20 20" fill="none" xmlns="http://www.w3.org/2000/svg">
<path d="M12.3752 3.29171V6.45837H11.1252V3.29171C11.1252 3.06671 10.9252 2.95837 10.7918 2.95837C10.7502 2.95837 10.7085 2.96671 10.6668 2.98337L4.0585 5.47504C3.61683 5.64171 3.3335 6.05837 3.3335 6.53337V7.09171C2.57516 7.65837 2.0835 8.56671 2.0835 9.59171V6.53337C2.0835 5.54171 2.69183 4.65837 3.61683 4.30837L10.2335 1.80837C10.4168 1.74171 10.6085 1.70837 10.7918 1.70837C11.6252 1.70837 12.3752 2.38337 12.3752 3.29171Z" fill="#292D32"/>
<path d="M17.9169 12.0833V12.9166C17.9169 13.1416 17.7419 13.325 17.5086 13.3333H16.2919C15.8502 13.3333 15.4502 13.0083 15.4169 12.575C15.3919 12.3166 15.4919 12.075 15.6586 11.9083C15.8086 11.75 16.0169 11.6666 16.2419 11.6666H17.5002C17.7419 11.675 17.9169 11.8583 17.9169 12.0833Z" fill="#292D32"/>
<path d="M16.2335 10.7917H17.0835C17.5418 10.7917 17.9168 10.4167 17.9168 9.95837V9.59171C17.9168 7.86671 16.5085 6.45837 14.7835 6.45837H5.21683C4.5085 6.45837 3.8585 6.69171 3.3335 7.09171C2.57516 7.65837 2.0835 8.56671 2.0835 9.59171V15.2C2.0835 16.925 3.49183 18.3334 5.21683 18.3334H14.7835C16.5085 18.3334 17.9168 16.925 17.9168 15.2V15.0417C17.9168 14.5834 17.5418 14.2084 17.0835 14.2084H16.3585C15.5585 14.2084 14.7918 13.7167 14.5835 12.9417C14.4085 12.3084 14.6168 11.7 15.0335 11.2917C15.3418 10.975 15.7668 10.7917 16.2335 10.7917ZM11.6668 10.625H5.8335C5.49183 10.625 5.2085 10.3417 5.2085 10C5.2085 9.65837 5.49183 9.37504 5.8335 9.37504H11.6668C12.0085 9.37504 12.2918 9.65837 12.2918 10C12.2918 10.3417 12.0085 10.625 11.6668 10.625Z" fill="#292D32"/>
</svg>
