<svg width="17" height="17" viewBox="0 0 17 17" fill="none" xmlns="http://www.w3.org/2000/svg">
<path d="M12.6936 6.54229L12.6883 4.16017C12.6808 3.84461 12.6463 3.52267 12.5714 3.2172C12.037 1.02872 9.91833 -0.33208 7.69399 0.0703415C5.72491 0.426279 4.25893 2.18365 4.25893 4.18753V6.53831C4.18455 6.53831 4.13488 6.53804 4.08441 6.53831H2.28958C2.08142 6.53859 1.88187 6.62141 1.73468 6.7686C1.58749 6.91579 1.50468 7.11534 1.50439 7.3235V16.215C1.50475 16.4231 1.58756 16.6225 1.73468 16.7697C1.88181 16.9168 2.08125 16.9996 2.28932 17H14.7099C14.9181 16.9997 15.1178 16.917 15.265 16.7698C15.4123 16.6226 15.4951 16.423 15.4954 16.2148V7.32323C15.4954 6.88947 15.1437 6.53804 14.7099 6.53804L12.6936 6.54229ZM9.65005 14.8702H7.34018C6.97707 14.8702 6.68302 14.5711 6.68302 14.2021C6.68302 14.1923 6.68408 14.1822 6.68435 14.1724C6.68355 14.1724 6.68329 14.013 6.68302 13.8536C6.68275 13.6772 6.76271 13.1832 7.00522 12.8257C7.26182 12.4477 7.60819 12.202 7.98352 12.0915C7.6923 11.9732 7.45128 11.7573 7.30176 11.4808C7.15224 11.2043 7.10353 10.8844 7.16397 10.5759C7.2244 10.2674 7.39023 9.9896 7.63304 9.78997C7.87584 9.59034 8.18051 9.48136 8.49485 9.4817C8.67282 9.48167 8.84905 9.5167 9.01347 9.58479C9.17789 9.65289 9.32729 9.75272 9.45312 9.87857C9.57895 10.0044 9.67874 10.1538 9.74681 10.3183C9.81487 10.4827 9.84987 10.659 9.8498 10.8369C9.8498 11.4186 9.48324 11.9143 8.96846 12.1066C9.33289 12.2243 9.67768 12.4679 9.94915 12.8424C10.2026 13.1917 10.3064 13.6778 10.3064 13.8539V14.1732C10.3053 14.1827 10.3064 14.1928 10.3064 14.2024C10.3067 14.5711 10.0126 14.8702 9.64979 14.8702M11.1617 5.17539C10.9173 5.89629 10.4552 6.47376 9.97172 7.03742C9.59879 7.47251 9.16024 7.83854 8.69354 8.17031C8.67096 8.18625 8.64705 8.19953 8.58649 8.23672C8.86486 7.75859 9.08932 7.29906 9.15439 6.76648C8.49246 6.92586 7.86824 6.85467 7.26394 6.58851C6.19082 6.1157 5.55013 5.08508 5.65957 3.92111C5.74908 2.96326 6.27582 2.2729 7.11679 1.82692C8.47147 1.10893 10.2018 1.5682 10.9763 2.84559C11.4279 3.58934 11.4348 4.36842 11.1615 5.17512" fill="white"/>
</svg>
