<svg width="15" height="17" viewBox="0 0 15 17" fill="none" xmlns="http://www.w3.org/2000/svg">
<path d="M7.43338 0.521857C3.32942 0.521857 0.0036708 3.81866 0 7.8914C0 10.3248 1.20769 12.6053 3.23398 13.9787L3.15689 13.9932C3.02107 14.1389 2.8669 14.2992 2.67234 14.4923C2.59893 14.5652 2.5145 14.638 2.43007 14.7109C2.34564 14.7837 2.30159 14.8238 2.23919 14.8857C1.84274 15.21 1.78768 15.7928 2.11438 16.1826C2.12173 16.1935 2.12907 16.2008 2.14008 16.2117C2.24653 16.2882 2.35666 16.3611 2.47045 16.4267C2.64665 16.5105 3.38448 16.4995 3.41018 16.4995C4.08193 16.4376 4.74268 16.2846 5.37406 16.0442C5.7962 15.8948 6.20366 15.7054 6.58909 15.4759L6.97086 15.2355C7.12503 15.2355 7.28288 15.25 7.44072 15.25C11.5447 15.3192 14.9292 12.0734 14.9989 8.00069C15.0687 3.92795 11.798 0.569215 7.69401 0.5C7.60958 0.5 7.52515 0.5 7.44072 0.5L7.43338 0.521857Z" fill="url(#paint0_linear_284_22662)"/>
<path d="M6.14857 1.38923C6.72855 1.29452 7.31955 1.27994 7.90688 1.33823C8.35105 1.3783 8.79154 1.46573 9.21736 1.59687C10.3223 1.93202 11.3354 2.51488 12.1834 3.29446C13.046 4.09589 13.6333 5.06854 13.9527 6.19783C14.1362 6.84262 14.2133 7.51291 14.184 8.1832C14.1583 8.75878 14.0555 9.32707 13.8719 9.86986C13.5599 10.7988 13.0387 11.6439 12.3486 12.3434C12.0072 12.6931 11.6254 13.0027 11.2143 13.2687C10.4911 13.7386 9.67988 14.0592 8.82825 14.2122C8.67041 14.2413 8.51256 14.2668 8.35105 14.285C7.96561 14.3215 7.57651 14.3287 7.19107 14.3069C6.73956 14.2814 6.28806 14.2158 5.84756 14.1138C5.32263 14.0009 4.80872 13.8406 4.31683 13.6293C3.54597 13.2978 2.84851 12.8242 2.25384 12.2377C1.73993 11.7277 1.33614 11.123 1.06083 10.4564C0.910328 10.0957 0.807546 9.71321 0.752484 9.32707C0.675397 8.82071 0.660714 8.30706 0.704764 7.79706C0.730459 7.53841 0.800205 7.2907 0.86995 7.03934C0.928683 6.82805 1.03146 6.63862 1.12324 6.44555C1.25905 6.16505 1.45728 5.9319 1.67753 5.71333C2.16207 5.23976 2.7494 4.95561 3.41015 4.82082C3.99013 4.70061 4.57012 4.72611 5.14644 4.83175C5.74845 4.94104 6.32476 5.16325 6.84235 5.48747C6.96348 5.56761 7.07728 5.6514 7.19107 5.74247C7.39297 5.89547 7.58018 6.07033 7.75638 6.25612C8.29232 6.84991 8.68876 7.5202 8.87597 8.29977C8.92002 8.48192 8.94572 8.67135 8.95673 8.85713C8.96407 8.90085 8.94205 8.94456 8.90534 8.96642C8.32535 9.39264 7.66461 9.695 6.95981 9.85164C6.86437 9.8735 6.76526 9.89536 6.66982 9.92086C6.61843 9.93543 6.60742 9.92086 6.6221 9.86986C6.66982 9.68043 6.7102 9.491 6.73222 9.29792C6.74691 9.19592 6.74324 9.09028 6.75792 8.98828C6.77627 8.79885 6.77627 8.60578 6.75792 8.41635C6.72121 7.84441 6.58906 7.27977 6.36881 6.75155C6.17426 6.29619 5.91363 5.89183 5.53187 5.57126C4.98125 5.10497 4.3462 4.86818 3.61571 4.90097C2.97699 4.93011 2.43371 5.18875 1.93448 5.56761C1.54171 5.85904 1.27007 6.28526 1.17096 6.76612C1.07918 7.20327 1.14159 7.62949 1.27741 8.04842C1.45361 8.59121 1.79132 9.00285 2.2465 9.33435C2.48143 9.50557 2.73105 9.65128 2.99167 9.7715C3.36243 9.94271 3.75887 10.0338 4.15532 10.1176C4.59949 10.2159 5.05834 10.256 5.51352 10.2414C5.85857 10.2232 6.19996 10.1759 6.534 10.0957C6.91576 10.0083 7.3012 9.92814 7.67195 9.797C8.16384 9.62214 8.62636 9.36714 9.03749 9.04657C9.14027 8.96642 9.23204 8.87899 9.33115 8.79885C9.59178 8.57299 9.83405 8.32527 10.0543 8.06299C10.3333 7.73877 10.5756 7.38905 10.7774 7.01384C10.9096 6.77341 11.0197 6.51841 11.1115 6.25976C11.3574 5.53483 11.3354 4.81354 11.0931 4.0886C10.9243 3.58589 10.6894 3.1196 10.3406 2.71524C9.9038 2.21616 9.36052 1.87738 8.73648 1.66973C8.17118 1.4803 7.58752 1.40016 6.99652 1.38559C6.74324 1.3783 6.48995 1.38194 6.24034 1.40016C6.20363 1.38923 6.17793 1.38923 6.14857 1.38923Z" fill="#FEFEFE"/>
<path d="M11.0605 5.73843C10.9504 5.61458 10.8476 5.498 10.7375 5.38143C10.6274 5.26486 10.5099 5.15193 10.3851 5.04629C9.92258 4.65286 9.41234 4.32135 8.86172 4.05542C8.27806 3.76764 7.65402 3.57092 7.00796 3.46892C6.75467 3.42885 6.49772 3.40699 6.24076 3.39971C5.15787 3.36692 4.07866 3.60006 3.1059 4.07728C2.80856 4.223 2.53692 4.41243 2.26161 4.59821C2.15149 4.67471 2.03402 4.74028 1.90921 4.78764C1.8982 4.79129 1.88719 4.79493 1.8725 4.79857C1.82478 4.8095 1.77339 4.83136 1.73301 4.79129C1.69264 4.75121 1.71099 4.70021 1.72567 4.65286C1.89086 4.10278 2.17718 3.59278 2.56262 3.16292C3.06919 2.59099 3.68955 2.17934 4.39068 1.87698C4.83851 1.69119 5.30838 1.56734 5.78925 1.50905C6.18937 1.45441 6.59683 1.43255 7.00062 1.43984C7.73478 1.45805 8.43957 1.60741 9.0893 1.94984C9.76106 2.3032 10.297 2.79863 10.6494 3.47256C10.866 3.89878 11.0091 4.35778 11.0715 4.83136C11.1156 5.12279 11.0936 5.41422 11.0605 5.70929C11.0679 5.72386 11.0642 5.73115 11.0605 5.73843Z" fill="#A6BDE9"/>
<path d="M6.63291 7.90906C6.57417 7.87263 6.51911 7.8362 6.46405 7.79977C6.17038 7.60306 5.83634 7.50834 5.49496 7.43549C5.1499 7.36627 4.7975 7.34077 4.44511 7.36627C3.77335 7.40999 3.14931 7.59213 2.60603 8.00378C2.32705 8.21142 2.09946 8.48099 1.93428 8.787C1.90858 8.83435 1.8939 8.82707 1.86453 8.79428C1.69934 8.60849 1.5672 8.40085 1.47175 8.17135C1.31391 7.7852 1.22581 7.38813 1.25885 6.97284C1.28454 6.60855 1.41302 6.25884 1.6296 5.96376C1.8682 5.64319 2.19123 5.43555 2.54363 5.26797C2.79324 5.1514 3.05754 5.07126 3.33285 5.03847C3.57512 5.00933 3.8174 5.01297 4.056 5.0494C4.58093 5.12226 5.07648 5.34447 5.4766 5.6869C5.81065 5.97469 6.07494 6.32805 6.25848 6.72877C6.43101 7.0967 6.55582 7.48649 6.63291 7.88356C6.63291 7.89085 6.63291 7.90178 6.63291 7.90906Z" fill="#A6BDE9"/>
<path d="M6.72854 14.3724C6.56702 14.4927 6.40184 14.6019 6.22564 14.7003C5.59059 15.0719 4.90415 15.3451 4.18834 15.5127C3.75152 15.6147 3.30368 15.6802 2.85584 15.6985C2.81179 15.7057 2.77141 15.6875 2.74572 15.6511C2.72736 15.6292 2.72369 15.5965 2.74205 15.5746C2.77508 15.5272 2.81913 15.4835 2.86318 15.4507C3.14584 15.2176 3.41013 14.9626 3.65608 14.6894C3.90936 14.4052 4.15898 14.1247 4.39758 13.8297C4.41226 13.8042 4.4453 13.7932 4.471 13.8078C4.471 13.8078 4.471 13.8078 4.47467 13.8078C5.18313 14.0847 5.92463 14.2704 6.67715 14.3615L6.72854 14.3724Z" fill="#FEFEFE"/>
<defs>
<linearGradient id="paint0_linear_284_22662" x1="7.49798" y1="16.5177" x2="7.49798" y2="0.517308" gradientUnits="userSpaceOnUse">
<stop stop-color="#1BA9EF"/>
<stop offset="1" stop-color="#1033A4"/>
</linearGradient>
</defs>
</svg>
