<svg width="17" height="17" viewBox="0 0 17 17" fill="none" xmlns="http://www.w3.org/2000/svg">
<path d="M2.06504 8.36389C6.5162 6.4057 12.2764 4.01826 13.0715 3.68782C15.1572 2.82295 15.7971 2.9887 15.478 4.90403C15.2489 6.28068 14.5877 10.8384 14.0607 13.6753C13.7479 15.3576 13.0463 15.557 11.9431 14.8292C11.4126 14.4789 8.7347 12.7081 8.15351 12.2923C7.62297 11.9133 6.89126 11.4575 7.80891 10.5597C8.13545 10.2399 10.276 8.19601 11.9438 6.60509C12.1623 6.39614 11.8878 6.05295 11.6357 6.22047C9.38778 7.71116 6.27112 9.7802 5.87445 10.0497C5.2752 10.4567 4.69968 10.6433 3.66658 10.3465C2.88599 10.1223 2.12347 9.85493 1.82668 9.75293C0.683786 9.36051 0.955078 8.85228 2.06504 8.36389Z" fill="#2DA5E1"/>
</svg>
