<svg width="15" height="15" viewBox="0 0 15 15" fill="none" xmlns="http://www.w3.org/2000/svg">
<g opacity="0.45">
<rect x="0.5" y="0.5" width="14" height="14" rx="7" stroke="#171E26"/>
<path d="M6.74536 9.07339V9.00537C6.75043 8.56146 6.79732 8.20823 6.88602 7.9457C6.97727 7.68317 7.10652 7.47076 7.2738 7.30847C7.44107 7.14618 7.64256 6.99821 7.87827 6.86456C8.03034 6.77387 8.1672 6.67243 8.28885 6.56026C8.41051 6.44809 8.50682 6.31921 8.57778 6.17363C8.64875 6.02804 8.68423 5.86695 8.68423 5.69033C8.68423 5.47792 8.63101 5.29415 8.52456 5.13902C8.41811 4.98389 8.27618 4.86456 8.09877 4.78103C7.92389 4.69511 7.72874 4.65215 7.51331 4.65215C7.31815 4.65215 7.13187 4.69033 6.95446 4.76671C6.77704 4.84308 6.63004 4.96241 6.51346 5.1247C6.39687 5.28461 6.32971 5.49105 6.31197 5.74403H5.15625C5.17399 5.31444 5.28931 4.95167 5.5022 4.65573C5.7151 4.3574 5.99643 4.13186 6.34618 3.97912C6.69847 3.82637 7.08752 3.75 7.51331 3.75C7.97965 3.75 8.3877 3.83234 8.73745 3.99702C9.08721 4.15931 9.3584 4.38723 9.55102 4.68079C9.74617 4.97196 9.84375 5.31205 9.84375 5.70107C9.84375 5.96838 9.7994 6.20943 9.71069 6.42422C9.62198 6.63663 9.49526 6.82637 9.33052 6.99344C9.16831 7.1605 8.97316 7.30847 8.74506 7.43735C8.52963 7.56384 8.35475 7.69511 8.22042 7.83115C8.08863 7.96718 7.99232 8.12828 7.93149 8.31444C7.87067 8.5006 7.83772 8.73091 7.83265 9.00537V9.07339H6.74536ZM7.31942 11.25C7.11159 11.25 6.93291 11.1808 6.78338 11.0424C6.63385 10.9016 6.55908 10.7321 6.55908 10.534C6.55908 10.3383 6.63385 10.1712 6.78338 10.0328C6.93291 9.892 7.11159 9.8216 7.31942 9.8216C7.52471 9.8216 7.70212 9.892 7.85166 10.0328C8.00373 10.1712 8.07976 10.3383 8.07976 10.534C8.07976 10.6653 8.04428 10.7858 7.97331 10.8956C7.90488 11.003 7.81364 11.0889 7.69959 11.1533C7.58554 11.2178 7.45881 11.25 7.31942 11.25Z" fill="#171E26"/>
</g>
</svg>
