<svg width="16" height="16" viewBox="0 0 16 16" fill="none" xmlns="http://www.w3.org/2000/svg">
<g clip-path="url(#clip0_121_10507)">
<path d="M6.125 1.4375V4.5625H4.25V1.4375C4.25 0.91875 4.66875 0.5 5.1875 0.5C5.70625 0.5 6.125 0.91875 6.125 1.4375Z" fill="#171E26"/>
<path d="M11.75 1.4375V4.5625H9.875V1.4375C9.875 0.91875 10.2938 0.5 10.8125 0.5C11.3312 0.5 11.75 0.91875 11.75 1.4375Z" fill="#171E26"/>
<path d="M8.15625 12.375H7.84375C4.82812 12.375 2.375 9.92188 2.375 6.90625V6.59375C2.375 5.99063 2.86563 5.5 3.46875 5.5H12.5312C13.1344 5.5 13.625 5.99063 13.625 6.59375V6.90625C13.625 9.92188 11.1719 12.375 8.15625 12.375Z" fill="#171E26"/>
<path d="M9.875 15.5C9.52938 15.5 9.25 15.22 9.25 14.875C9.25 14.7025 9.10938 14.5625 8.9375 14.5625C8.07563 14.5625 7.375 13.8613 7.375 13V11.75C7.375 11.405 7.65438 11.125 8 11.125C8.34562 11.125 8.625 11.405 8.625 11.75V13C8.625 13.1725 8.76562 13.3125 8.9375 13.3125C9.79938 13.3125 10.5 14.0138 10.5 14.875C10.5 15.22 10.2206 15.5 9.875 15.5Z" fill="#171E26"/>
</g>
<defs>
<clipPath id="clip0_121_10507">
<rect width="15" height="15" fill="white" transform="translate(0.5 0.5)"/>
</clipPath>
</defs>
</svg>
