<svg width="15" height="16" viewBox="0 0 15 16" fill="none" xmlns="http://www.w3.org/2000/svg">
<path d="M13.125 1.75V5.5H9.375" stroke="#0078D4" stroke-width="1.5" stroke-linecap="round" stroke-linejoin="round"/>
<path d="M1.875 8.00001C1.87599 6.91458 2.191 5.85262 2.78203 4.94222C3.37307 4.03181 4.21488 3.31186 5.20594 2.86918C6.197 2.42651 7.29497 2.28003 8.36741 2.44741C9.43986 2.61479 10.441 3.08889 11.25 3.81251L13.125 5.5" stroke="#0078D4" stroke-width="1.5" stroke-linecap="round" stroke-linejoin="round"/>
<path d="M1.875 14.25V10.5H5.625" stroke="#0078D4" stroke-width="1.5" stroke-linecap="round" stroke-linejoin="round"/>
<path d="M13.125 8C13.124 9.08543 12.809 10.1474 12.218 11.0578C11.6269 11.9682 10.7851 12.6881 9.79406 13.1308C8.803 13.5735 7.70503 13.72 6.63259 13.5526C5.56014 13.3852 4.55903 12.9111 3.75 12.1875L1.875 10.5" stroke="#0078D4" stroke-width="1.5" stroke-linecap="round" stroke-linejoin="round"/>
</svg>
