<svg width="16" height="16" viewBox="0 0 16 16" fill="none" xmlns="http://www.w3.org/2000/svg">
<path d="M12.9134 3.25996L9.0067 1.51996C8.43337 1.26662 7.5667 1.26662 6.99337 1.51996L3.0867 3.25996C2.10004 3.69996 1.95337 4.29996 1.95337 4.61996C1.95337 4.93996 2.10004 5.53996 3.0867 5.97996L6.99337 7.71996C7.28004 7.84662 7.64004 7.91329 8.00004 7.91329C8.36004 7.91329 8.72004 7.84662 9.0067 7.71996L12.9134 5.97996C13.9 5.53996 14.0467 4.93996 14.0467 4.61996C14.0467 4.29996 13.9067 3.69996 12.9134 3.25996Z" fill="#292D32"/>
<path d="M7.99996 11.36C7.74663 11.36 7.4933 11.3067 7.25996 11.2067L2.76663 9.20671C2.07996 8.90004 1.54663 8.08004 1.54663 7.32671C1.54663 7.05337 1.76663 6.83337 2.03996 6.83337C2.3133 6.83337 2.5333 7.05337 2.5333 7.32671C2.5333 7.68671 2.8333 8.15337 3.16663 8.30004L7.65996 10.3C7.8733 10.3934 8.11996 10.3934 8.3333 10.3L12.8266 8.30004C13.16 8.15337 13.46 7.69337 13.46 7.32671C13.46 7.05337 13.68 6.83337 13.9533 6.83337C14.2266 6.83337 14.4466 7.05337 14.4466 7.32671C14.4466 8.07337 13.9133 8.90004 13.2266 9.20671L8.7333 11.2067C8.50663 11.3067 8.2533 11.36 7.99996 11.36Z" fill="#292D32"/>
<path d="M7.99996 14.6667C7.74663 14.6667 7.4933 14.6133 7.25996 14.5133L2.76663 12.5133C2.02663 12.1867 1.54663 11.4467 1.54663 10.6333C1.54663 10.36 1.76663 10.14 2.03996 10.14C2.3133 10.14 2.5333 10.36 2.5333 10.6333C2.5333 11.0533 2.77996 11.4333 3.16663 11.6067L7.65996 13.6067C7.8733 13.7 8.11996 13.7 8.3333 13.6067L12.8266 11.6067C13.2066 11.44 13.46 11.0533 13.46 10.6333C13.46 10.36 13.68 10.14 13.9533 10.14C14.2266 10.14 14.4466 10.36 14.4466 10.6333C14.4466 11.4467 13.9666 12.18 13.2266 12.5133L8.7333 14.5133C8.50663 14.6133 8.2533 14.6667 7.99996 14.6667Z" fill="#292D32"/>
</svg>
