<svg width="18" height="19" viewBox="0 0 18 19" fill="none" xmlns="http://www.w3.org/2000/svg">
<path d="M5.62419 16.9999C6.53221 16.9997 7.41482 16.7 8.13513 16.1471C8.85544 15.5943 9.3732 14.8192 9.60811 13.942C9.84302 13.0649 9.78196 12.1348 9.43439 11.2959C9.08682 10.4571 8.47217 9.75632 7.68576 9.30237C6.89935 8.84842 5.98513 8.66663 5.08488 8.78521C4.18463 8.90378 3.34866 9.31609 2.70661 9.95818C2.06457 10.6003 1.65232 11.4363 1.53382 12.3365C1.41532 13.2368 1.59717 14.151 2.05119 14.9374L1.70544 16.7936L3.56169 16.4486C4.18854 16.811 4.9001 17.0012 5.62419 16.9999Z" stroke="#171E26" stroke-width="1.4" stroke-linecap="round" stroke-linejoin="round"/>
<path d="M11.4608 13.9234C12.1789 13.8078 12.8698 13.5618 13.4993 13.1974L16.1993 13.6999L15.6968 10.9999C16.138 10.2345 16.4047 9.38112 16.4779 8.50071C16.5512 7.6203 16.4291 6.73458 16.1204 5.90682C15.8116 5.07906 15.324 4.32969 14.6921 3.71223C14.0603 3.09476 13.2999 2.62445 12.4652 2.33488C11.6306 2.04531 10.7423 1.94363 9.86379 2.03709C8.9853 2.13056 8.13828 2.41688 7.38325 2.87558C6.62822 3.33429 5.9838 3.95407 5.49602 4.69066C5.00825 5.42724 4.68915 6.26245 4.56152 7.13664" stroke="#171E26" stroke-width="1.4" stroke-linecap="round" stroke-linejoin="round"/>
</svg>
