<svg width="20" height="20" viewBox="0 0 20 20" fill="none" xmlns="http://www.w3.org/2000/svg">
<g id="UbuntuCoF" clip-path="url(#clip0_1_1046)">
<path id="Vector" d="M10 20C15.5228 20 20 15.5228 20 10C20 4.47715 15.5228 0 10 0C4.47715 0 0 4.47715 0 10C0 15.5228 4.47715 20 10 20Z" fill="#F47421"/>
<path id="Vector_2" d="M10.25 15C12.8734 15 15 12.7614 15 10C15 7.23858 12.8734 5 10.25 5C7.62665 5 5.5 7.23858 5.5 10C5.5 12.7614 7.62665 15 10.25 15Z" stroke="white" stroke-width="4.275"/>
<g id="friend">
<path id="Vector_3" d="M3.46291 11.875C4.49846 11.875 5.33794 11.0356 5.33794 10C5.33794 8.96448 4.49846 8.125 3.46291 8.125C2.42737 8.125 1.58789 8.96448 1.58789 10C1.58789 11.0356 2.42737 11.875 3.46291 11.875Z" fill="#F47421"/>
<g id="Vector_4">
<path d="M14.0405 10H16.2627H14.0405Z" fill="black"/>
<path d="M14.0405 10H16.2627" stroke="#F47421" stroke-width="1.6189"/>
</g>
<path id="Vector_5" d="M3.46292 11.335C4.20021 11.335 4.79791 10.7373 4.79791 10C4.79791 9.26273 4.20021 8.66504 3.46292 8.66504C2.72562 8.66504 2.12793 9.26273 2.12793 10C2.12793 10.7373 2.72562 11.335 3.46292 11.335Z" fill="white"/>
</g>
<g id="friend_2">
<path id="Vector_6" d="M12.0395 3.1736C11.5217 4.07041 11.829 5.21715 12.7258 5.73493C13.6226 6.2527 14.7693 5.94543 15.2871 5.04862C15.8049 4.15181 15.4976 3.00507 14.6008 2.48729C13.704 1.96952 12.5572 2.27679 12.0395 3.1736Z" fill="#F47421"/>
<g id="Vector_7">
<path d="M8.37451 13.2717L7.2634 15.1962L8.37451 13.2717Z" fill="black"/>
<path d="M8.37451 13.2717L7.2634 15.1962" stroke="#F47421" stroke-width="1.6189"/>
</g>
<path id="Vector_8" d="M12.5071 3.44346C12.1384 4.08197 12.3572 4.89844 12.9957 5.26709C13.6342 5.63574 14.4507 5.41696 14.8193 4.77845C15.188 4.13993 14.9692 3.32347 14.3307 2.95482C13.6922 2.58617 12.8757 2.80494 12.5071 3.44346Z" fill="white"/>
</g>
<g id="friend_3">
<path id="Vector_9" d="M15.2872 14.9514C14.7694 14.0545 13.6227 13.7473 12.7258 14.2651C11.829 14.7828 11.5218 15.9296 12.0395 16.8264C12.5573 17.7232 13.7041 18.0305 14.6009 17.5127C15.4977 16.9949 15.8049 15.8482 15.2872 14.9514Z" fill="#F47421"/>
<g id="Vector_10">
<path d="M8.37451 6.72852L7.2634 4.80401L8.37451 6.72852Z" fill="black"/>
<path d="M8.37451 6.72852L7.2634 4.80401" stroke="#F47421" stroke-width="1.6189"/>
</g>
<path id="Vector_11" d="M14.8196 15.2215C14.4509 14.583 13.6345 14.3642 12.996 14.7329C12.3574 15.1015 12.1387 15.918 12.5073 16.5565C12.876 17.195 13.6924 17.4138 14.3309 17.0452C14.9695 16.6765 15.1882 15.86 14.8196 15.2215Z" fill="white"/>
</g>
</g>
<defs>
<clipPath id="clip0_1_1046">
<rect width="20" height="20" fill="white"/>
</clipPath>
</defs>
</svg>
