<svg width="15" height="15" viewBox="0 0 15 15" fill="none" xmlns="http://www.w3.org/2000/svg">
<g opacity="0.35" clip-path="url(#clip0_121_10313)">
<path fill-rule="evenodd" clip-rule="evenodd" d="M3.51562 0.9375H9.66346C10.5397 0.9375 11.25 1.64782 11.25 2.52404V2.8125H4.39904C3.52282 2.8125 2.8125 3.15642 2.8125 4.39904V11.2332C1.96396 11.0859 0.9375 10.0026 0.9375 9.1875V3.51562C0.9375 1.96875 1.96875 0.9375 3.51562 0.9375Z" fill="#171E26"/>
<path d="M12.1875 3.75H5.625C4.74878 3.75 3.75 4.38238 3.75 5.625V12.1875C3.75 13.0637 4.74878 14.0625 5.625 14.0625H12.1875C13.0637 14.0625 14.0625 13.0637 14.0625 12.1875V5.625C14.0625 4.74878 13.0637 3.75 12.1875 3.75Z" fill="#171E26"/>
</g>
<defs>
<clipPath id="clip0_121_10313">
<rect width="15" height="15" fill="white"/>
</clipPath>
</defs>
</svg>
