<svg width="16" height="16" viewBox="0 0 16 16" fill="none" xmlns="http://www.w3.org/2000/svg">
<path d="M14.6665 7.3133V8.68663C14.6665 9.0533 14.3732 9.3533 13.9998 9.36663H12.6932C11.9732 9.36663 11.3132 8.83997 11.2532 8.11997C11.2132 7.69997 11.3732 7.30663 11.6532 7.0333C11.8998 6.77997 12.2398 6.6333 12.6132 6.6333H13.9998C14.3732 6.64663 14.6665 6.94663 14.6665 7.3133Z" fill="#292D32"/>
<path d="M13.6468 10.3667H12.6935C11.4268 10.3667 10.3602 9.41337 10.2535 8.20004C10.1935 7.50671 10.4468 6.81337 10.9535 6.32004C11.3802 5.88004 11.9735 5.63337 12.6135 5.63337H13.6468C13.8402 5.63337 14.0002 5.47337 13.9802 5.28004C13.8335 3.66004 12.7602 2.55337 11.1668 2.36671C11.0068 2.34004 10.8402 2.33337 10.6668 2.33337H4.66683C4.48016 2.33337 4.30016 2.34671 4.12683 2.37337C2.42683 2.58671 1.3335 3.85337 1.3335 5.66671V10.3334C1.3335 12.1734 2.82683 13.6667 4.66683 13.6667H10.6668C12.5335 13.6667 13.8202 12.5 13.9802 10.72C14.0002 10.5267 13.8402 10.3667 13.6468 10.3667ZM8.66683 6.50004H4.66683C4.3935 6.50004 4.16683 6.27337 4.16683 6.00004C4.16683 5.72671 4.3935 5.50004 4.66683 5.50004H8.66683C8.94016 5.50004 9.16683 5.72671 9.16683 6.00004C9.16683 6.27337 8.94016 6.50004 8.66683 6.50004Z" fill="#292D32"/>
</svg>
