<svg width="20" height="20" viewBox="0 0 20 20" fill="none" xmlns="http://www.w3.org/2000/svg">
<path d="M0 10C0 4.47715 4.47715 0 10 0C15.5228 0 20 4.47715 20 10C20 15.5228 15.5228 20 10 20C4.47715 20 0 15.5228 0 10Z" fill="white" fill-opacity="0.25"/>
<path d="M0.5 10C0.5 4.75329 4.7533 0.5 10 0.5C15.2467 0.5 19.5 4.75329 19.5 10C19.5 15.2467 15.2467 19.5 10 19.5C4.7533 19.5 0.5 15.2467 0.5 10Z" stroke="white" stroke-opacity="0.25"/>
<path d="M13.8018 7.27271L10.67 10.4604L8.71262 12.2314L6.36377 10.1062" stroke="white" stroke-width="1.5" stroke-linecap="round"/>
</svg>
