<svg width="20" height="20" viewBox="0 0 20 20" fill="none" xmlns="http://www.w3.org/2000/svg">
<g id="cable 1" clip-path="url(#clip0_1_1065)">
<g id="Group">
<path id="Vector" d="M7.5 1.25V5.41667H5V1.25C5 0.558333 5.55833 0 6.25 0C6.94167 0 7.5 0.558333 7.5 1.25Z" fill="#171E26"/>
<path id="Vector_2" d="M15 1.25V5.41667H12.5V1.25C12.5 0.558333 13.0583 0 13.75 0C14.4417 0 15 0.558333 15 1.25Z" fill="#171E26"/>
<path id="Vector_3" d="M10.2083 15.8333H9.79167C5.77083 15.8333 2.5 12.5625 2.5 8.54166V8.12499C2.5 7.32082 3.15417 6.66666 3.95833 6.66666H16.0417C16.8458 6.66666 17.5 7.32082 17.5 8.12499V8.54166C17.5 12.5625 14.2292 15.8333 10.2083 15.8333Z" fill="#171E26"/>
<path id="Vector_4" d="M12.4998 20C12.039 20 11.6665 19.6266 11.6665 19.1666C11.6665 18.9366 11.479 18.75 11.2498 18.75C10.1007 18.75 9.1665 17.815 9.1665 16.6666V15C9.1665 14.54 9.539 14.1666 9.99984 14.1666C10.4607 14.1666 10.8332 14.54 10.8332 15V16.6666C10.8332 16.8966 11.0207 17.0833 11.2498 17.0833C12.399 17.0833 13.3332 18.0183 13.3332 19.1666C13.3332 19.6266 12.9607 20 12.4998 20Z" fill="#171E26"/>
</g>
</g>
<defs>
<clipPath id="clip0_1_1065">
<rect width="20" height="20" fill="white"/>
</clipPath>
</defs>
</svg>
