<svg width="50" height="50" viewBox="0 0 50 50" fill="none" xmlns="http://www.w3.org/2000/svg">
<g filter="url(#filter0_d_28_2014)">
<rect x="12" y="8" width="26" height="26" rx="13" fill="white"/>
<path d="M28.1991 27.4393C27.3122 27.8131 26.362 28 25.3484 28C24.3095 28 23.3424 27.8257 22.4471 27.4771C21.5517 27.1285 20.7726 26.637 20.1095 26.0028C19.4465 25.3685 18.9291 24.6166 18.5575 23.7471C18.1858 22.8776 18 21.9262 18 20.8929C18 19.9016 18.1837 18.9523 18.5511 18.045C18.9186 17.1377 19.4296 16.3354 20.0842 15.6382C20.7388 14.9409 21.5053 14.4201 22.3837 14.0756C22.4597 14.042 22.5357 14.021 22.6118 14.0126C22.6878 14.0042 22.7469 14 22.7891 14C22.9243 14 23.0278 14.0441 23.0996 14.1323C23.1713 14.2205 23.2072 14.3108 23.2072 14.4032C23.2072 14.4368 23.203 14.4788 23.1946 14.5293C23.1861 14.5797 23.165 14.6469 23.1312 14.7309C23.013 15.0249 22.9095 15.4155 22.8208 15.9028C22.7321 16.39 22.6878 16.8353 22.6878 17.2385C22.6878 18.5155 22.9454 19.6181 23.4606 20.5464C23.9759 21.4747 24.7044 22.1909 25.6461 22.6949C26.5879 23.1989 27.7008 23.4509 28.9846 23.4509C29.4238 23.4509 29.8504 23.4131 30.2642 23.3375C30.6781 23.262 31.016 23.178 31.2779 23.0855C31.3961 23.0519 31.4974 23.0352 31.5819 23.0352C31.6832 23.0352 31.7783 23.075 31.867 23.1548C31.9557 23.2346 32 23.3418 32 23.4762C32 23.5014 31.9958 23.5497 31.9873 23.6211C31.9789 23.6925 31.9578 23.7702 31.924 23.8542C31.6199 24.6187 31.1448 25.3139 30.4987 25.9398C29.8525 26.5656 29.086 27.0655 28.1991 27.4393Z" fill="#1D1D1F"/>
</g>
<defs>
<filter id="filter0_d_28_2014" x="0" y="0" width="50" height="50" filterUnits="userSpaceOnUse" color-interpolation-filters="sRGB">
<feFlood flood-opacity="0" result="BackgroundImageFix"/>
<feColorMatrix in="SourceAlpha" type="matrix" values="0 0 0 0 0 0 0 0 0 0 0 0 0 0 0 0 0 0 127 0" result="hardAlpha"/>
<feOffset dy="4"/>
<feGaussianBlur stdDeviation="6"/>
<feColorMatrix type="matrix" values="0 0 0 0 0 0 0 0 0 0 0 0 0 0 0 0 0 0 0.08 0"/>
<feBlend mode="normal" in2="BackgroundImageFix" result="effect1_dropShadow_28_2014"/>
<feBlend mode="normal" in="SourceGraphic" in2="effect1_dropShadow_28_2014" result="shape"/>
</filter>
</defs>
</svg>
