<svg width="14" height="14" viewBox="0 0 14 14" fill="none" xmlns="http://www.w3.org/2000/svg">
<path d="M12.25 1.16663V4.66663H8.75" stroke="#E47B00" stroke-width="1.5" stroke-linecap="round" stroke-linejoin="round"/>
<path d="M1.75 6.99998C1.75092 5.98691 2.04493 4.99575 2.59657 4.14604C3.1482 3.29634 3.93389 2.62438 4.85888 2.21121C5.78387 1.79805 6.80864 1.66134 7.80958 1.81756C8.81053 1.97378 9.74491 2.41627 10.5 3.09165L12.25 4.66665" stroke="#E47B00" stroke-width="1.5" stroke-linecap="round" stroke-linejoin="round"/>
<path d="M1.75 12.8334V9.33337H5.25" stroke="#E47B00" stroke-width="1.5" stroke-linecap="round" stroke-linejoin="round"/>
<path d="M12.25 7C12.2491 8.01307 11.9551 9.00423 11.4034 9.85394C10.8518 10.7036 10.0661 11.3756 9.14112 11.7888C8.21613 12.2019 7.19136 12.3386 6.19041 12.1824C5.18947 12.0262 4.25509 11.5837 3.5 10.9083L1.75 9.33333" stroke="#E47B00" stroke-width="1.5" stroke-linecap="round" stroke-linejoin="round"/>
</svg>
