<svg width="18" height="18" viewBox="0 0 18 18" fill="none" xmlns="http://www.w3.org/2000/svg">
<path d="M13.485 8.09251V11.0925C13.485 11.2875 13.4775 11.475 13.455 11.655C13.2825 13.68 12.09 14.685 9.8925 14.685H9.59251C9.40501 14.685 9.225 14.775 9.1125 14.925L8.21251 16.125C7.81501 16.6575 7.17 16.6575 6.7725 16.125L5.87249 14.925C5.77499 14.7975 5.5575 14.685 5.3925 14.685H5.09251C2.70001 14.685 1.5 14.0925 1.5 11.0925V8.09251C1.5 5.89501 2.51251 4.70251 4.53001 4.53001C4.71001 4.50751 4.89751 4.5 5.09251 4.5H9.8925C12.285 4.5 13.485 5.70001 13.485 8.09251Z" stroke="#171E26" stroke-width="1.5" stroke-miterlimit="10" stroke-linecap="round" stroke-linejoin="round"/>
<path d="M16.4853 5.09251V8.09251C16.4853 10.2975 15.4728 11.4825 13.4553 11.655C13.4778 11.475 13.4853 11.2875 13.4853 11.0925V8.09251C13.4853 5.70001 12.2853 4.5 9.89277 4.5H5.09277C4.89777 4.5 4.71027 4.50751 4.53027 4.53001C4.70277 2.51251 5.89527 1.5 8.09277 1.5H12.8928C15.2853 1.5 16.4853 2.70001 16.4853 5.09251Z" stroke="#171E26" stroke-width="1.5" stroke-miterlimit="10" stroke-linecap="round" stroke-linejoin="round"/>
<path d="M10.1216 9.9375H10.1284" stroke="#171E26" stroke-width="2" stroke-linecap="round" stroke-linejoin="round"/>
<path d="M7.49662 9.9375H7.50337" stroke="#171E26" stroke-width="2" stroke-linecap="round" stroke-linejoin="round"/>
<path d="M4.87162 9.9375H4.87837" stroke="#171E26" stroke-width="2" stroke-linecap="round" stroke-linejoin="round"/>
</svg>
