<svg width="16" height="18" viewBox="0 0 16 18" fill="none" xmlns="http://www.w3.org/2000/svg">
<path d="M5.88683 3.51923L6.4002 2.23846C6.48678 2.02161 6.6391 1.83509 6.83722 1.70332C7.03534 1.57155 7.27001 1.50069 7.51051 1.5H8.48949C8.72999 1.50069 8.96466 1.57155 9.16278 1.70332C9.3609 1.83509 9.51322 2.02161 9.5998 2.23846L10.1132 3.51923L11.8562 4.48846L13.265 4.28077C13.4996 4.25 13.7383 4.28732 13.9509 4.38799C14.1635 4.48866 14.3403 4.64814 14.4589 4.84615L14.9364 5.65385C15.0588 5.85502 15.1152 6.08732 15.0981 6.3201C15.0811 6.55288 14.9914 6.77519 14.8409 6.95769L13.9694 8.03077V9.96923L14.8648 11.0423C15.0153 11.2248 15.105 11.4471 15.122 11.6799C15.1391 11.9127 15.0827 12.145 14.9603 12.3462L14.4828 13.1538C14.3642 13.3519 14.1874 13.5113 13.9748 13.612C13.7622 13.7127 13.5235 13.75 13.2889 13.7192L11.8801 13.5115L10.137 14.4808L9.62368 15.7615C9.5371 15.9784 9.38478 16.1649 9.18666 16.2967C8.98854 16.4284 8.75386 16.4993 8.51337 16.5H7.51051C7.27001 16.4993 7.03534 16.4284 6.83722 16.2967C6.6391 16.1649 6.48678 15.9784 6.4002 15.7615L5.88683 14.4808L4.14377 13.5115L2.73499 13.7192C2.50041 13.75 2.26166 13.7127 2.04908 13.612C1.8365 13.5113 1.65969 13.3519 1.54111 13.1538L1.06356 12.3462C0.941187 12.145 0.884807 11.9127 0.901859 11.6799C0.918911 11.4471 1.00859 11.2248 1.15907 11.0423L2.0306 9.96923V8.03077L1.13519 6.95769C0.984715 6.77519 0.895033 6.55288 0.877981 6.3201C0.86093 6.08732 0.91731 5.85502 1.03968 5.65385L1.51723 4.84615C1.63581 4.64814 1.81263 4.48866 2.02521 4.38799C2.23779 4.28732 2.47653 4.25 2.71111 4.28077L4.11989 4.48846L5.88683 3.51923ZM5.61224 9C5.61224 9.45642 5.75228 9.90259 6.01465 10.2821C6.27702 10.6616 6.64994 10.9574 7.08624 11.132C7.52255 11.3067 8.00265 11.3524 8.46583 11.2634C8.92901 11.1743 9.35447 10.9545 9.6884 10.6318C10.0223 10.309 10.2497 9.89786 10.3419 9.45021C10.434 9.00256 10.3867 8.53856 10.206 8.11688C10.0253 7.69521 9.71923 7.3348 9.32657 7.08122C8.9339 6.82765 8.47225 6.69231 8 6.69231C7.36673 6.69231 6.75939 6.93544 6.3116 7.36821C5.86381 7.80099 5.61224 8.38796 5.61224 9Z" stroke="#171E26" stroke-width="1.5" stroke-linecap="round" stroke-linejoin="round"/>
</svg>
