<svg width="20" height="20" viewBox="0 0 20 20" fill="none" xmlns="http://www.w3.org/2000/svg">
<path d="M18.3334 9.14163V10.8583C18.3334 11.3166 17.9667 11.6916 17.5 11.7083H15.8667C14.9667 11.7083 14.1417 11.05 14.0667 10.15C14.0167 9.62496 14.2167 9.13329 14.5667 8.79163C14.875 8.47496 15.3 8.29163 15.7667 8.29163H17.5C17.9667 8.30829 18.3334 8.68329 18.3334 9.14163Z" fill="#292D32"/>
<path d="M17.0582 12.9583H15.8665C14.2832 12.9583 12.9498 11.7666 12.8165 10.25C12.7415 9.38329 13.0582 8.51663 13.6915 7.89996C14.2248 7.34996 14.9665 7.04163 15.7665 7.04163H17.0582C17.2998 7.04163 17.4998 6.84163 17.4748 6.59996C17.2915 4.57496 15.9498 3.19163 13.9582 2.95829C13.7582 2.92496 13.5498 2.91663 13.3332 2.91663H5.83317C5.59984 2.91663 5.37484 2.93329 5.15817 2.96663C3.03317 3.23329 1.6665 4.81663 1.6665 7.08329V12.9166C1.6665 15.2166 3.53317 17.0833 5.83317 17.0833H13.3332C15.6665 17.0833 17.2748 15.625 17.4748 13.4C17.4998 13.1583 17.2998 12.9583 17.0582 12.9583ZM10.8332 8.12496H5.83317C5.4915 8.12496 5.20817 7.84163 5.20817 7.49996C5.20817 7.15829 5.4915 6.87496 5.83317 6.87496H10.8332C11.1748 6.87496 11.4582 7.15829 11.4582 7.49996C11.4582 7.84163 11.1748 8.12496 10.8332 8.12496Z" fill="#292D32"/>
</svg>
