<svg width="16" height="16" viewBox="0 0 16 16" fill="none" xmlns="http://www.w3.org/2000/svg">
<path d="M5.5 3.83337C5.22667 3.83337 5 3.60671 5 3.33337V1.33337C5 1.06004 5.22667 0.833374 5.5 0.833374C5.77333 0.833374 6 1.06004 6 1.33337V3.33337C6 3.60671 5.77333 3.83337 5.5 3.83337Z" fill="#292D32"/>
<path d="M10.5 3.83337C10.2267 3.83337 10 3.60671 10 3.33337V1.33337C10 1.06004 10.2267 0.833374 10.5 0.833374C10.7733 0.833374 11 1.06004 11 1.33337V3.33337C11 3.60671 10.7733 3.83337 10.5 3.83337Z" fill="#292D32"/>
<path d="M7.9999 9.39337C8.34657 9.39337 8.5999 9.18671 8.5999 8.86004C8.5999 8.52671 8.34657 8.33337 7.9999 8.33337C7.65324 8.33337 7.3999 8.52671 7.3999 8.86004C7.3999 9.18671 7.65324 9.39337 7.9999 9.39337Z" fill="#292D32"/>
<path d="M7.99999 11.3334C8.41973 11.3334 8.75999 11.0558 8.75999 10.7134C8.75999 10.371 8.41973 10.0934 7.99999 10.0934C7.58025 10.0934 7.23999 10.371 7.23999 10.7134C7.23999 11.0558 7.58025 11.3334 7.99999 11.3334Z" fill="#292D32"/>
<path d="M13.0467 3.00004C12.6067 2.67337 11.9734 2.98671 11.9734 3.54004V3.60671C11.9734 4.38671 11.4134 5.10671 10.6334 5.18671C9.73341 5.28004 8.97341 4.57337 8.97341 3.69337V3.00004C8.97341 2.63337 8.67342 2.33337 8.30675 2.33337H7.69341C7.32675 2.33337 7.02675 2.63337 7.02675 3.00004V3.69337C7.02675 4.22004 6.75342 4.68671 6.34008 4.94671C6.28008 4.98671 6.21342 5.02004 6.14675 5.05337C6.08675 5.08671 6.02008 5.11337 5.94675 5.13337C5.86675 5.16004 5.78008 5.18004 5.68675 5.18671C5.58008 5.20004 5.47341 5.20004 5.36675 5.18671C5.27341 5.18004 5.18675 5.16004 5.10675 5.13337C5.04008 5.11337 4.97341 5.08671 4.90675 5.05337C4.84008 5.02004 4.77341 4.98671 4.71341 4.94671C4.29341 4.65337 4.02675 4.14671 4.02675 3.60671V3.54004C4.02675 3.02671 3.48008 2.72004 3.04675 2.94004C3.04008 2.94671 3.03341 2.94671 3.02675 2.95337C3.00008 2.96671 2.98008 2.98004 2.95341 3.00004C2.93341 3.02004 2.90675 3.03337 2.88675 3.05337C2.70008 3.20004 2.53341 3.36671 2.39341 3.54671C2.32008 3.62671 2.26008 3.71337 2.20675 3.80004C2.20008 3.80671 2.19341 3.81337 2.18675 3.82671C2.12675 3.91337 2.07341 4.01337 2.02675 4.10671C2.01341 4.12004 2.00675 4.12671 2.00675 4.14004C1.96675 4.22004 1.92675 4.30004 1.90008 4.38671C1.88008 4.42004 1.87341 4.44671 1.86008 4.48004C1.82008 4.58004 1.79341 4.68004 1.76675 4.78004C1.74008 4.87337 1.72008 4.97337 1.70675 5.07337C1.69341 5.14671 1.68675 5.22004 1.68008 5.30004C1.67341 5.39337 1.66675 5.48671 1.66675 5.58004V11.42C1.66675 13.2134 3.12008 14.6667 4.91341 14.6667H11.0867C12.8801 14.6667 14.3334 13.2134 14.3334 11.42V5.58004C14.3334 4.52004 13.8267 3.59337 13.0467 3.00004ZM8.00008 12.1667C6.96675 12.1667 6.33342 11.6534 6.33342 10.8267C6.33342 10.3734 6.56675 9.98004 6.97341 9.74671C6.68008 9.54004 6.48675 9.23337 6.48675 8.81337C6.48675 7.94671 7.18008 7.50004 8.00008 7.50004C8.82008 7.50004 9.50675 7.94671 9.50675 8.81337C9.50675 9.23337 9.32008 9.54004 9.02008 9.74671C9.43341 9.98004 9.66675 10.3734 9.66675 10.8267C9.66675 11.6534 9.02675 12.1667 8.00008 12.1667Z" fill="#292D32"/>
</svg>
