<svg width="50" height="50" viewBox="0 0 50 50" fill="none" xmlns="http://www.w3.org/2000/svg">
<g filter="url(#filter0_d_1_2589)">
<rect x="12" y="8" width="26" height="26" rx="13" fill="white"/>
<path d="M29.625 20.9999C29.625 23.4852 27.6103 25.4999 25.125 25.4999C22.6397 25.4999 20.625 23.4852 20.625 20.9999C20.625 18.5147 22.6397 16.4999 25.125 16.4999C27.6103 16.4999 29.625 18.5147 29.625 20.9999ZM21.75 20.9999C21.75 22.8639 23.261 24.3749 25.125 24.3749C26.989 24.3749 28.5 22.8639 28.5 20.9999C28.5 19.136 26.989 17.6249 25.125 17.6249C23.261 17.6249 21.75 19.136 21.75 20.9999Z" fill="#171E26"/>
<path d="M17.9332 21.9288C18.1884 21.9288 18.4078 21.8371 18.5912 21.6537C18.7747 21.4704 18.8664 21.2511 18.8664 20.996C18.8664 20.7409 18.7747 20.5217 18.5912 20.3383C18.4078 20.155 18.1884 20.0633 17.9332 20.0633C17.678 20.0633 17.4586 20.155 17.2752 20.3383C17.0917 20.5217 17 20.7409 17 20.996C17 21.2511 17.0917 21.4704 17.2752 21.6537C17.4586 21.8371 17.678 21.9288 17.9332 21.9288ZM19.999 16.9302C20.2542 16.9302 20.4736 16.8386 20.657 16.6552C20.8405 16.4718 20.9322 16.2526 20.9322 15.9975C20.9322 15.7424 20.8405 15.5232 20.657 15.3398C20.4736 15.1565 20.2542 15.0648 19.999 15.0648C19.7438 15.0648 19.5244 15.1565 19.341 15.3398C19.1575 15.5232 19.0658 15.7424 19.0658 15.9975C19.0658 16.2526 19.1575 16.4718 19.341 16.6552C19.5244 16.8386 19.7438 16.9302 19.999 16.9302ZM25 14.8655C25.2553 14.8655 25.4746 14.7738 25.6581 14.5904C25.8415 14.4071 25.9332 14.1878 25.9332 13.9327C25.9332 13.6776 25.8415 13.4584 25.6581 13.275C25.4746 13.0917 25.2553 13 25 13C24.7448 13 24.5254 13.0917 24.342 13.275C24.1585 13.4584 24.0668 13.6776 24.0668 13.9327C24.0668 14.1878 24.1585 14.4071 24.342 14.5904C24.5254 14.7738 24.7448 14.8655 25 14.8655ZM30.0011 16.9302C30.2563 16.9302 30.4756 16.8386 30.659 16.6552C30.8425 16.4718 30.9342 16.2526 30.9342 15.9975C30.9342 15.7424 30.8425 15.5232 30.659 15.3398C30.4756 15.1565 30.2563 15.0648 30.0011 15.0648C29.7458 15.0648 29.5264 15.1565 29.343 15.3398C29.1596 15.5232 29.0678 15.7424 29.0678 15.9975C29.0678 16.2526 29.1596 16.4718 29.343 16.6552C29.5264 16.8386 29.7458 16.9302 30.0011 16.9302ZM32.0669 21.9288C32.3221 21.9288 32.5414 21.8371 32.7248 21.6537C32.9083 21.4704 33 21.2511 33 20.996C33 20.7409 32.9083 20.5217 32.7248 20.3383C32.5414 20.155 32.3221 20.0633 32.0669 20.0633C31.8116 20.0633 31.5922 20.155 31.4088 20.3383C31.2254 20.5217 31.1336 20.7409 31.1336 20.996C31.1336 21.2511 31.2254 21.4704 31.4088 21.6537C31.5922 21.8371 31.8116 21.9288 32.0669 21.9288ZM30.0011 26.9272C30.2563 26.9272 30.4756 26.8355 30.659 26.6522C30.8425 26.4688 30.9342 26.2496 30.9342 25.9946C30.9342 25.7394 30.8425 25.5202 30.659 25.3368C30.4756 25.1535 30.2563 25.0618 30.0011 25.0618C29.7458 25.0618 29.5264 25.1535 29.343 25.3368C29.1596 25.5202 29.0678 25.7394 29.0678 25.9946C29.0678 26.2496 29.1596 26.4688 29.343 26.6522C29.5264 26.8355 29.7458 26.9272 30.0011 26.9272ZM25 28.992C25.2553 28.992 25.4746 28.9003 25.6581 28.717C25.8415 28.5336 25.9332 28.3144 25.9332 28.0593C25.9332 27.8042 25.8415 27.585 25.6581 27.4016C25.4746 27.2182 25.2553 27.1266 25 27.1266C24.7448 27.1266 24.5254 27.2182 24.342 27.4016C24.1585 27.585 24.0668 27.8042 24.0668 28.0593C24.0668 28.3144 24.1585 28.5336 24.342 28.717C24.5254 28.9003 24.7448 28.992 25 28.992ZM19.999 26.9272C20.2542 26.9272 20.4736 26.8355 20.657 26.6522C20.8405 26.4688 20.9322 26.2496 20.9322 25.9946C20.9322 25.7394 20.8405 25.5202 20.657 25.3368C20.4736 25.1535 20.2542 25.0618 19.999 25.0618C19.7438 25.0618 19.5244 25.1535 19.341 25.3368C19.1575 25.5202 19.0658 25.7394 19.0658 25.9946C19.0658 26.2496 19.1575 26.4688 19.341 26.6522C19.5244 26.8355 19.7438 26.9272 19.999 26.9272Z" fill="#171E26"/>
</g>
<defs>
<filter id="filter0_d_1_2589" x="0" y="0" width="50" height="50" filterUnits="userSpaceOnUse" color-interpolation-filters="sRGB">
<feFlood flood-opacity="0" result="BackgroundImageFix"/>
<feColorMatrix in="SourceAlpha" type="matrix" values="0 0 0 0 0 0 0 0 0 0 0 0 0 0 0 0 0 0 127 0" result="hardAlpha"/>
<feOffset dy="4"/>
<feGaussianBlur stdDeviation="6"/>
<feColorMatrix type="matrix" values="0 0 0 0 0 0 0 0 0 0 0 0 0 0 0 0 0 0 0.08 0"/>
<feBlend mode="normal" in2="BackgroundImageFix" result="effect1_dropShadow_1_2589"/>
<feBlend mode="normal" in="SourceGraphic" in2="effect1_dropShadow_1_2589" result="shape"/>
</filter>
</defs>
</svg>
